<?xml version="1.0" encoding="UTF-8"?><svg id="Layer_1" xmlns="http://www.w3.org/2000/svg" viewBox="0 0 32 32"><defs><style>.cls-1{fill:#080b07;stroke-width:0px;}.cls-2{fill:#fff;stroke:#080b07;stroke-linecap:round;stroke-linejoin:round;stroke-width:.75px;}</style></defs><path class="cls-1" d="m21.84,31.51C7.28,33.48-1.12,29.86.12,13.53.31,4.81,5.33.15,13.97.05c6.27-.28,13.14.32,16.18,5.99,1.81,3.41,1.91,7.59,1.84,11.41.06,6.63-2.85,12.94-9.96,14.02l-.18.03Z"/><path class="cls-2" d="m24.49,23.21c0,.2-.35.5-.53.79-.21.31-.35.74-.42,1.06-.07.23-.07.46-.24.41-1.04-.51-5.15-2.56-6.17-3.1-.17-.11.13-.43.23-.61.2-.28.39-.6.6-.87.15-.18.25-.16.51-.1.23.05.45.09.69.14.57.12,1.16.24,1.74.36.8.17,1.47.3,2.04.42.29.06.47.07.66.28.2.21.4.46.59.69.13.16.3.34.3.53h0Z"/><path class="cls-2" d="m26.24,10.8c-.01-1.34-.5-2.48-1.53-3.36-1.89-1.6-4-2.8-6.44-3.51-1.19-.4-2.48-.46-3.78-.27-2.08.31-4.02,1.01-5.58,2.46-1.94,1.8-2.87,4.12-3.11,6.72-.1,1.04-.02,2.09.73,2.89.53.56,1.17,1.04,1.82,1.47,1.49.97,3.05,1.85,4.41,3.02.2.17.45.32.71.41.52.18,1.05.15.97-.64-.02-.2-.04-.4-.04-.6,0-.19.04-.39.06-.58.01-.15.05-.3.01-.44-.18-.62-.04-1.08.45-1.24.26-.08-.6-1.91.9.7.14.24.31.31.56.19.26-.13.5-.27.77-.38.48-.19.91.02,1.08.51.1.29.17.6.25.89.1.38.3.68.64.88.88.52,1.82.52,2.78.29.11-.03.23-.16.28-.27.18-.38.09-.77-.03-1.15,0-.03,0-.05,0-.08.02.02.05.04.05.06.08.32.19.64.21.97.02.3-.1.63-.44.68-.65.11-1.32.15-1.98.2-.21.01-.47-.14-.61-.06-.16.09-.2.37-.31.57-.1.17-.03.24.14.3.31.1.61.2.92.31.06.02.12.03.17.04.54.15,1.09.3,1.63.45.05.02.09.07.15.1.34.16.68.32,1.02.48.02,0,.04,0,.05,0,.32.04.67.03.96.15.21.09.35.34.61.4.03,0,.06.06.09.09.03-.04.07-.07.08-.11.04-.23.07-.45.11-.68.05-.39.03-.81.17-1.17.12-.31.08-.4-.19-.55-.57-.33-.78-1-.41-1.39.35-.38.76-.71,1.18-1.02.17-.13.21-.21.13-.41-.23-.61-.45-1.22-.65-1.84-.1-.32.04-.58.31-.79.42-.32.61-.76.6-1.29,0-.24,0-.48,0-.71.03-.88.11-1.77.1-2.65Zm-11.67,5.31c-.13-.13-.27-.26-.42-.36-.7-.42-1.69-.21-2.5-.27-.11,0-.65-.03-.3-.08.37-.05,1.05-.06,1.49-.07.39,0,.79-.02,1.13.1h.01c.38.12.76.56.89.86.16.35-.2-.09-.3-.18Zm10.16-.62s-.02.03-.02.04c-.05.2-.15.39-.25.57-.24.4-.48.8-.73,1.2-.16.25-.33.5-.53.69-.23.27-.48.34-.76.25-.16-.05-.3-.17-.41-.32-.12-.16-.21-.37-.24-.57-.06-.29-.06-.58-.06-.88,0-.43,0-.86.11-1.25h0c.25-.8,1.27-1.45,2.08-1.19.43.16.77.61.82,1.07,0,.01,0,.03,0,.04,0,.02.01.04.02.05.03.08.01.21-.03.29Z"/><path class="cls-2" d="m21.96,24.7c.07.04.13.08.2.11.29.17.57.34.87.51.12.07.24.12.37.16.2.06.33.14.18.38-.21.32-.31.65-.17,1.04.07.19.05.41.03.62-.05.59-.32.85-.9.91-.46.05-.86-.06-1.26-.35-1.23-.89-2.46-1.78-3.98-2.16-1.73-.43-2.37-1.55-2.04-3.29.19-1,.21-2.01.01-3.01-.07-.36-.31-.69-.43-1.05-.1-.27-.19-.56-.21-.85-.02-.33.47-.66.77-.55.07.03.14.16.16.26.07.32.14.63.45.81.03.02.05.08.06.12.14.73.74,1.08,1.47.85.17-.06.34-.14.52-.19.05-.01.16.04.17.09.15.48.39.89.82,1.18.04.03.06.16.04.23-.15.43-.32.84-.45,1.28-.06.2-.1.45-.04.65.07.22.22.43.4.58.28.25.59.45.9.66.18.12,1.6.76,2.09,1.03Z"/></svg>